<svg width="45" height="723" viewBox="0 0 45 723" fill="none" xmlns="http://www.w3.org/2000/svg">
<path fill-rule="evenodd" clip-rule="evenodd" d="M24.3186 4.6664C23.2439 3.77787 21.7561 3.77787 20.6815 4.6664L15.2954 9.11964C14.8042 9.52572 14.5 10.1673 14.5 10.8663V17.8109C14.5 19.0784 15.4521 20 16.5 20H18.5V16.7478C18.5 14.4927 20.2341 12.5587 22.5 12.5587C24.7659 12.5587 26.5 14.4927 26.5 16.7478V20H28.5C29.5479 20 30.5 19.0784 30.5 17.8109V10.8663C30.5 10.1673 30.1958 9.52572 29.7046 9.11965L24.3186 4.6664ZM25.593 3.12502L30.979 7.57827C31.9494 8.38059 32.5 9.59705 32.5 10.8663V17.8109C32.5 20.066 30.7659 22 28.5 22H26.5C25.3954 22 24.5 21.1046 24.5 20V16.7478C24.5 15.4803 23.5479 14.5587 22.5 14.5587C21.4521 14.5587 20.5 15.4803 20.5 16.7478V20C20.5 21.1046 19.6046 22 18.5 22H16.5C14.2341 22 12.5 20.066 12.5 17.8109V10.8663C12.5 9.59705 13.0506 8.38059 14.021 7.57827L19.407 3.12502C21.2213 1.62499 23.7787 1.62499 25.593 3.12502Z" fill="#020A26"/>
<path fill-rule="evenodd" clip-rule="evenodd" d="M16.5 55C15.3954 55 14.5 55.8954 14.5 57V69C14.5 70.1046 15.3954 71 16.5 71H28.5C29.6046 71 30.5 70.1046 30.5 69V60.375C30.5 59.2704 29.6046 58.375 28.5 58.375H23.5704C22.5673 58.375 21.6306 57.8737 21.0742 57.0391L20.0117 55.4453C19.8262 55.1671 19.514 55 19.1796 55H16.5ZM12.5 57C12.5 54.7909 14.2909 53 16.5 53H19.1796C20.1827 53 21.1194 53.5013 21.6758 54.3359L22.7383 55.9297C22.9238 56.2079 23.236 56.375 23.5704 56.375H28.5C30.7091 56.375 32.5 58.1659 32.5 60.375V69C32.5 71.2091 30.7091 73 28.5 73H16.5C14.2909 73 12.5 71.2091 12.5 69V57Z" fill="#020A26"/>
<path fill-rule="evenodd" clip-rule="evenodd" d="M12.5 110C12.5 107.239 14.7386 105 17.5 105H27.5C30.2614 105 32.5 107.239 32.5 110V119C32.5 121.761 30.2614 124 27.5 124H17.5C14.7386 124 12.5 121.761 12.5 119V110ZM17.5 107C15.8431 107 14.5 108.343 14.5 110V119C14.5 120.657 15.8431 122 17.5 122H27.5C29.1569 122 30.5 120.657 30.5 119V110C30.5 108.343 29.1569 107 27.5 107H17.5Z" fill="#020A26"/>
<path fill-rule="evenodd" clip-rule="evenodd" d="M18.5 104C19.0523 104 19.5 104.448 19.5 105V108C19.5 108.552 19.0523 109 18.5 109C17.9477 109 17.5 108.552 17.5 108V105C17.5 104.448 17.9477 104 18.5 104Z" fill="#020A26"/>
<path fill-rule="evenodd" clip-rule="evenodd" d="M16.5 112C16.5 111.448 16.9477 111 17.5 111H27.5C28.0523 111 28.5 111.448 28.5 112C28.5 112.552 28.0523 113 27.5 113H17.5C16.9477 113 16.5 112.552 16.5 112Z" fill="#020A26"/>
<path fill-rule="evenodd" clip-rule="evenodd" d="M25.5 119C25.5 118.448 25.9477 118 26.5 118H27.5C28.0523 118 28.5 118.448 28.5 119C28.5 119.552 28.0523 120 27.5 120H26.5C25.9477 120 25.5 119.552 25.5 119Z" fill="#020A26"/>
<path fill-rule="evenodd" clip-rule="evenodd" d="M26.5 104C27.0523 104 27.5 104.448 27.5 105V108C27.5 108.552 27.0523 109 26.5 109C25.9477 109 25.5 108.552 25.5 108V105C25.5 104.448 25.9477 104 26.5 104Z" fill="#020A26"/>
<path fill-rule="evenodd" clip-rule="evenodd" d="M22.5 157C20.9255 157 19.4046 157.657 18.275 158.846C17.1438 160.036 16.5 161.66 16.5 163.364C16.5 165.844 18.0363 168.265 19.7431 170.16C20.5789 171.088 21.4177 171.849 22.0484 172.377C22.2154 172.517 22.3673 172.64 22.5 172.745C22.6327 172.64 22.7846 172.517 22.9516 172.377C23.5823 171.849 24.4211 171.088 25.2569 170.16C26.9637 168.265 28.5 165.844 28.5 163.364C28.5 161.66 27.8562 160.036 26.725 158.846C25.5954 157.657 24.0745 157 22.5 157ZM22.5 174C21.9258 174.819 21.9256 174.819 21.9253 174.818L21.9228 174.817L21.9172 174.813L21.8986 174.799C21.8829 174.788 21.8607 174.772 21.8325 174.752C21.7762 174.711 21.6956 174.651 21.5943 174.574C21.3917 174.42 21.1058 174.196 20.7641 173.91C20.0823 173.339 19.1711 172.514 18.2569 171.499C16.4637 169.508 14.5 166.611 14.5 163.364C14.5 161.161 15.3312 159.04 16.8255 157.468C18.3214 155.894 20.3615 155 22.5 155C24.6385 155 26.6786 155.894 28.1745 157.468C29.6688 159.04 30.5 161.161 30.5 163.364C30.5 166.611 28.5363 169.508 26.7431 171.499C25.8289 172.514 24.9177 173.339 24.2359 173.91C23.8942 174.196 23.6083 174.42 23.4057 174.574C23.3044 174.651 23.2238 174.711 23.1675 174.752C23.1393 174.772 23.1171 174.788 23.1014 174.799L23.0828 174.813L23.0772 174.817L23.0754 174.818C23.0751 174.818 23.0742 174.819 22.5 174ZM22.5 174L23.0742 174.819C22.7295 175.06 22.2699 175.06 21.9253 174.818L22.5 174Z" fill="#020A26"/>
<path fill-rule="evenodd" clip-rule="evenodd" d="M22.5 161C21.3954 161 20.5 161.895 20.5 163C20.5 164.105 21.3954 165 22.5 165C23.6046 165 24.5 164.105 24.5 163C24.5 161.895 23.6046 161 22.5 161ZM18.5 163C18.5 160.791 20.2909 159 22.5 159C24.7091 159 26.5 160.791 26.5 163C26.5 165.209 24.7091 167 22.5 167C20.2909 167 18.5 165.209 18.5 163Z" fill="#020A26"/>
<path fill-rule="evenodd" clip-rule="evenodd" d="M15.4289 208.929C17.2375 207.12 19.7389 206 22.5 206C25.2611 206 27.7625 207.12 29.5711 208.929C31.3796 210.737 32.5 213.239 32.5 216C32.5 218.761 31.3796 221.263 29.5711 223.071C27.7625 224.88 25.2611 226 22.5 226C19.7389 226 17.2375 224.88 15.4289 223.071C13.6204 221.263 12.5 218.761 12.5 216C12.5 213.239 13.6204 210.737 15.4289 208.929ZM22.5 208C20.2906 208 18.292 208.894 16.8431 210.343C15.3943 211.792 14.5 213.791 14.5 216C14.5 218.209 15.3943 220.208 16.8431 221.657C18.292 223.106 20.2906 224 22.5 224C24.7094 224 26.708 223.106 28.1569 221.657C29.6057 220.208 30.5 218.209 30.5 216C30.5 213.791 29.6057 211.792 28.1569 210.343C26.708 208.894 24.7094 208 22.5 208Z" fill="#020A26"/>
<path fill-rule="evenodd" clip-rule="evenodd" d="M22.5 211C23.0523 211 23.5 211.448 23.5 212V216C23.5 216.552 23.0523 217 22.5 217C21.9477 217 21.5 216.552 21.5 216L21.5 212C21.5 211.448 21.9477 211 22.5 211Z" fill="#020A26"/>
<path fill-rule="evenodd" clip-rule="evenodd" d="M21.7929 215.293C22.1834 214.902 22.8166 214.902 23.2071 215.293L25.2071 217.293C25.5976 217.683 25.5976 218.317 25.2071 218.707C24.8166 219.098 24.1834 219.098 23.7929 218.707L21.7929 216.707C21.4024 216.317 21.4024 215.683 21.7929 215.293Z" fill="#020A26"/>
<rect y="255" width="45" height="45" rx="10" fill="#EDF3F2"/>
<rect width="24" height="24" transform="translate(11 265)" fill="#EDF3F2"/>
<path fill-rule="evenodd" clip-rule="evenodd" d="M15 284C15 281.239 17.2386 279 20 279H26C28.7614 279 31 281.239 31 284C31 285.657 29.6569 287 28 287H18C16.3431 287 15 285.657 15 284ZM20 281C18.3431 281 17 282.343 17 284C17 284.552 17.4477 285 18 285H28C28.5523 285 29 284.552 29 284C29 282.343 27.6569 281 26 281H20Z" fill="#32BC9B"/>
<path fill-rule="evenodd" clip-rule="evenodd" d="M23 269C21.3431 269 20 270.343 20 272C20 273.657 21.3431 275 23 275C24.6569 275 26 273.657 26 272C26 270.343 24.6569 269 23 269ZM18 272C18 269.239 20.2386 267 23 267C25.7614 267 28 269.239 28 272C28 274.761 25.7614 277 23 277C20.2386 277 18 274.761 18 272Z" fill="#32BC9B"/>
<path d="M22.5 346.861L16.5 343.587V341.865L21.7815 344.747C22.2293 344.991 22.7707 344.991 23.2185 344.747L28.5 341.865V343.587L22.5 346.861ZM22.5 340.861L13.5883 336L22.5 331.139L32.5 336.594V337.932C32.5 336.794 31.2812 336.07 30.2816 336.616L22.5 340.861Z" stroke="#020A26" stroke-width="2"/>
<path d="M22.38 385.14C23.66 385.2 23.99 386.29 24.01 386.8H25.8C25.72 384.82 24.31 383.61 22.35 383.61C20.14 383.61 18.5 385 18.5 388.14C18.5 390.08 19.43 392.38 22.34 392.38C24.56 392.38 25.75 390.73 25.78 389.43H23.99C23.96 390.02 23.54 390.81 22.36 390.87C21.05 390.83 20.5 389.81 20.5 388.14C20.5 385.25 21.78 385.16 22.38 385.14ZM22.5 378C16.98 378 12.5 382.48 12.5 388C12.5 393.52 16.98 398 22.5 398C28.02 398 32.5 393.52 32.5 388C32.5 382.48 28.02 378 22.5 378ZM22.5 396C18.09 396 14.5 392.41 14.5 388C14.5 383.59 18.09 380 22.5 380C26.91 380 30.5 383.59 30.5 388C30.5 392.41 26.91 396 22.5 396Z" fill="#020A26"/>
<path d="M25.5 440.5C22.99 440.5 20.82 439.08 19.74 437H24.5C25.0523 437 25.5 436.552 25.5 436V436C25.5 435.448 25.0523 435 24.5 435H19.08C19.03 434.67 19 434.34 19 434C19 433.66 19.03 433.33 19.08 433H24.5C25.0523 433 25.5 432.552 25.5 432V432C25.5 431.448 25.0523 431 24.5 431H19.74C20.82 428.92 23 427.5 25.5 427.5C26.6925 427.5 27.8137 427.824 28.7783 428.39C29.3481 428.724 30.0911 428.709 30.5583 428.242V428.242C31.0701 427.73 31.0513 426.885 30.4475 426.486C29.0274 425.547 27.3234 425 25.5 425C21.58 425 18.26 427.51 17.02 431H14.5C13.9477 431 13.5 431.448 13.5 432V432C13.5 432.552 13.9477 433 14.5 433H16.56C16.52 433.33 16.5 433.66 16.5 434C16.5 434.34 16.52 434.67 16.56 435H14.5C13.9477 435 13.5 435.448 13.5 436V436C13.5 436.552 13.9477 437 14.5 437H17.02C18.26 440.49 21.58 443 25.5 443C27.3294 443 29.0271 442.454 30.444 441.517C31.0493 441.117 31.067 440.269 30.5524 439.758V439.758C30.0831 439.291 29.3386 439.279 28.7684 439.615C27.8119 440.178 26.6969 440.5 25.5 440.5Z" fill="#020A26"/>
<path d="M30.6073 476.15C30.1663 476.051 29.796 475.729 29.6637 475.297C28.7234 472.225 25.8737 470 22.5 470C19.8014 470 17.4341 471.43 16.1146 473.573C15.939 473.859 15.6483 474.055 15.3197 474.121C12.5696 474.666 10.5 477.094 10.5 480C10.5 483.31 13.19 486 16.5 486H29.5C32.26 486 34.5 483.76 34.5 481C34.5 478.622 32.8371 476.65 30.6073 476.15ZM25.2791 479C26.0155 479 26.3408 479.927 25.7657 480.387L23.1247 482.5C22.7595 482.792 22.2405 482.792 21.8753 482.5L19.2343 480.387C18.6592 479.927 18.9845 479 19.7209 479V479C20.1512 479 20.5 478.651 20.5 478.221V475C20.5 474.448 20.9477 474 21.5 474H23.5C24.0523 474 24.5 474.448 24.5 475V478.221C24.5 478.651 24.8488 479 25.2791 479V479Z" stroke="#020A26" stroke-width="2"/>
<path d="M30.6073 519.15C30.1663 519.051 29.796 518.729 29.6637 518.297C28.7234 515.225 25.8737 513 22.5 513C19.8014 513 17.4341 514.43 16.1146 516.573C15.939 516.859 15.6483 517.055 15.3197 517.121C12.5696 517.666 10.5 520.094 10.5 523C10.5 526.31 13.19 529 16.5 529H29.5C32.26 529 34.5 526.76 34.5 524C34.5 521.622 32.8371 519.65 30.6073 519.15ZM25.2791 522C26.0155 522 26.3408 522.927 25.7657 523.387L23.1247 525.5C22.7595 525.792 22.2405 525.792 21.8753 525.5L19.2343 523.387C18.6592 522.927 18.9845 522 19.7209 522V522C20.1512 522 20.5 521.651 20.5 521.221V518C20.5 517.448 20.9477 517 21.5 517H23.5C24.0523 517 24.5 517.448 24.5 518V521.221C24.5 521.651 24.8488 522 25.2791 522V522Z" stroke="#020A26" stroke-width="2"/>
<path d="M19.51 569.5C19.51 569.776 19.2861 570 19.01 570H13C12.7239 570 12.5 570.224 12.5 570.5V571.5C12.5 571.776 12.7239 572 13 572H19.01C19.2861 572 19.51 572.224 19.51 572.5V573.791C19.51 574.237 20.0492 574.459 20.364 574.144L23.1478 571.353C23.3424 571.158 23.3424 570.842 23.1478 570.647L20.364 567.856C20.0492 567.541 19.51 567.763 19.51 568.209V569.5ZM24.636 568.144C24.9508 568.459 25.49 568.237 25.49 567.791V566.5C25.49 566.224 25.7139 566 25.99 566H32C32.2761 566 32.5 565.776 32.5 565.5V564.5C32.5 564.224 32.2761 564 32 564H25.99C25.7139 564 25.49 563.776 25.49 563.5V562.209C25.49 561.763 24.9508 561.541 24.636 561.856L21.8522 564.647C21.6576 564.842 21.6576 565.158 21.8522 565.353L24.636 568.144Z" fill="#020A26"/>
<path d="M23.0001 611.015C22.7245 610.998 22.5 610.776 22.5 610.5V608.207C22.5 607.762 21.9614 607.539 21.6464 607.854L17.8536 611.646C17.6583 611.842 17.6583 612.158 17.8536 612.354L21.6464 616.146C21.9614 616.461 22.5 616.238 22.5 615.793V613.5C22.5 613.224 22.7246 612.998 22.9998 613.021C26.0766 613.275 28.5 615.858 28.5 619C28.5 622.31 25.81 625 22.5 625C19.3583 625 16.7752 622.577 16.5206 619.5C16.4978 619.225 16.2761 619 16 619H15C14.7239 619 14.4984 619.224 14.5154 619.5C14.7733 623.687 18.248 627 22.5 627C26.92 627 30.5 623.42 30.5 619C30.5 614.748 27.1869 611.273 23.0001 611.015Z" fill="#020A26"/>
<path fill-rule="evenodd" clip-rule="evenodd" d="M22.5 664C21.3954 664 20.5 664.895 20.5 666C20.5 667.105 21.3954 668 22.5 668C23.6046 668 24.5 667.105 24.5 666C24.5 664.895 23.6046 664 22.5 664ZM18.5 666C18.5 663.791 20.2909 662 22.5 662C24.7091 662 26.5 663.791 26.5 666C26.5 668.209 24.7091 670 22.5 670C20.2909 670 18.5 668.209 18.5 666Z" fill="#020A26"/>
<path fill-rule="evenodd" clip-rule="evenodd" d="M19.2296 658.541C19.2296 657.138 20.3672 656 21.7706 656H23.2293C24.6327 656 25.7703 657.138 25.7703 658.541C25.7703 658.744 25.9106 659.016 26.2458 659.198C26.3489 659.254 26.4507 659.312 26.5509 659.373C26.8852 659.574 27.1991 659.561 27.3833 659.456C28.6071 658.755 30.1666 659.173 30.8764 660.392L31.5808 661.601C32.2919 662.821 31.8722 664.388 30.6461 665.089C30.4683 665.191 30.3012 665.45 30.3093 665.835C30.3105 665.89 30.3111 665.945 30.3111 666C30.3111 666.055 30.3105 666.11 30.3093 666.165C30.3012 666.55 30.4683 666.809 30.6461 666.911C31.8722 667.612 32.2919 669.179 31.5808 670.399L30.8763 671.608C30.1666 672.827 28.6071 673.245 27.3833 672.544C27.199 672.439 26.8852 672.426 26.5509 672.627C26.4507 672.688 26.3489 672.746 26.2458 672.802C25.9106 672.984 25.7703 673.256 25.7703 673.459C25.7703 674.862 24.6327 676 23.2293 676H21.7706C20.3672 676 19.2296 674.862 19.2296 673.459C19.2296 673.256 19.0893 672.984 18.7541 672.802C18.651 672.746 18.5492 672.688 18.449 672.627C18.1147 672.426 17.8009 672.439 17.6166 672.544C16.3928 673.245 14.8333 672.827 14.1236 671.608L13.4191 670.399C12.708 669.179 13.1277 667.612 14.3538 666.911C14.5316 666.809 14.6987 666.55 14.6906 666.165C14.6894 666.11 14.6888 666.055 14.6888 666C14.6888 665.945 14.6894 665.89 14.6906 665.835C14.6987 665.45 14.5316 665.191 14.3538 665.089C13.1277 664.388 12.708 662.821 13.4191 661.601L14.1235 660.392C14.8333 659.173 16.3928 658.755 17.6166 659.456C17.8008 659.561 18.1147 659.574 18.449 659.373C18.5492 659.312 18.651 659.254 18.7541 659.198C19.0893 659.016 19.2296 658.744 19.2296 658.541ZM21.7706 658C21.4718 658 21.2296 658.242 21.2296 658.541C21.2296 659.647 20.5241 660.512 19.7086 660.955C19.6319 660.997 19.5562 661.04 19.4816 661.085C18.6861 661.565 17.5841 661.741 16.6233 661.192C16.353 661.037 16.0085 661.129 15.8517 661.398L15.1472 662.608C14.9952 662.868 15.0849 663.203 15.3471 663.353C16.3094 663.904 16.7098 664.949 16.6901 665.877C16.6893 665.918 16.6888 665.959 16.6888 666C16.6888 666.041 16.6893 666.082 16.6901 666.123C16.7098 667.051 16.3094 668.096 15.3471 668.647C15.085 668.797 14.9952 669.132 15.1473 669.392L15.8517 670.602C16.0085 670.871 16.353 670.963 16.6234 670.808C17.5841 670.259 18.6861 670.435 19.4816 670.915C19.5562 670.96 19.6319 671.003 19.7086 671.045C20.5241 671.488 21.2296 672.353 21.2296 673.459C21.2296 673.758 21.4718 674 21.7706 674H23.2293C23.5281 674 23.7703 673.758 23.7703 673.459C23.7703 672.353 24.4758 671.488 25.2913 671.045C25.368 671.003 25.4437 670.96 25.5183 670.915C26.3138 670.435 27.4158 670.259 28.3765 670.808C28.6469 670.963 28.9914 670.871 29.1482 670.602L29.8526 669.392C30.0047 669.132 29.9149 668.797 29.6528 668.647C28.6905 668.096 28.2901 667.051 28.3098 666.123C28.3106 666.082 28.3111 666.041 28.3111 666C28.3111 665.959 28.3106 665.918 28.3098 665.877C28.2901 664.949 28.6905 663.904 29.6528 663.353C29.915 663.203 30.0047 662.868 29.8527 662.608L29.1482 661.398C28.9915 661.129 28.6469 661.037 28.3766 661.192C27.4158 661.741 26.3138 661.565 25.5183 661.085C25.4437 661.04 25.368 660.997 25.2913 660.955C24.4758 660.512 23.7703 659.647 23.7703 658.541C23.7703 658.242 23.5281 658 23.2293 658H21.7706Z" fill="#020A26"/>
<path d="M23.5 706C23.5 705.448 23.0523 705 22.5 705V705C21.9477 705 21.5 705.448 21.5 706V714C21.5 714.552 21.9477 715 22.5 715V715C23.0523 715 23.5 714.552 23.5 714V706ZM28.9923 707.793C28.636 707.423 28.0502 707.45 27.687 707.813V707.813C27.2722 708.228 27.3149 708.908 27.7086 709.343C28.8223 710.573 29.5 712.206 29.5 714C29.5 717.87 26.37 721 22.5 721C18.63 721 15.5 717.87 15.5 714C15.5 712.202 16.1807 710.566 17.2932 709.329C17.6825 708.897 17.7225 708.222 17.3109 707.811V707.811C16.9489 707.449 16.365 707.422 16.0097 707.79C14.4552 709.404 13.5 711.585 13.5 714C13.5 718.97 17.53 723 22.5 723C27.47 723 31.5 718.97 31.5 714C31.5 711.586 30.5456 709.406 28.9923 707.793Z" fill="#020A26"/>
</svg>
